<?xml version="1.0" encoding="utf-8"?>
<!-- Generator: Adobe Illustrator 23.0.5, SVG Export Plug-In . SVG Version: 6.00 Build 0)  -->
<svg version="1.1" id="Capa_1" xmlns="http://www.w3.org/2000/svg" xmlns:xlink="http://www.w3.org/1999/xlink" x="0px" y="0px"
	 viewBox="0 0 150 150" style="enable-background:new 0 0 150 150;" xml:space="preserve">
<style type="text/css">
	.st0{fill:none;stroke:#FFFFFF;stroke-width:8;stroke-miterlimit:10;}
	.st1{fill:#FFFFFF;}
</style>
<path class="st0" d="M123.96,136.14H26.23c-6.6,0-12-5.4-12-12V26.41c0-6.6,5.4-12,12-12h97.73c6.6,0,12,5.4,12,12v97.73
	C135.96,130.74,130.56,136.14,123.96,136.14z"/>
<path class="st1" d="M75.86,132.98V72.97H56.88v-14.7c6.49,0.07,12.97,0.13,19.46,0.2c-0.11-1.21-1.08-14.1,9.2-22.86
	c9.31-7.93,20.44-6.17,21.96-5.91c0,5.05,0,10.1,0,15.15c-4.64-0.8-9.19,0.96-11.62,4.5c-2.34,3.41-1.81,7.16-1.65,8.1h18.17v15.72
	H94.84c0.07,19.93,0.14,39.87,0.2,59.8"/>
</svg>
