<?xml version="1.0" encoding="utf-8"?>
<!-- Generator: Adobe Illustrator 23.0.5, SVG Export Plug-In . SVG Version: 6.00 Build 0)  -->
<svg version="1.1" id="Capa_1" xmlns="http://www.w3.org/2000/svg" xmlns:xlink="http://www.w3.org/1999/xlink" x="0px" y="0px"
	 viewBox="0 0 150 150" style="enable-background:new 0 0 150 150;" xml:space="preserve">
<style type="text/css">
	.st0{fill:none;stroke:#FFFFFF;stroke-width:8;stroke-miterlimit:10;}
	.st1{fill:#FFFFFF;}
</style>
<path class="st0" d="M124.09,136.28h-98c-6.6,0-12-5.4-12-12v-98c0-6.6,5.4-12,12-12h98c6.6,0,12,5.4,12,12v98
	C136.09,130.88,130.69,136.28,124.09,136.28z"/>
<circle class="st0" cx="75.59" cy="74.78" r="30"/>
<g>
	<g>
		<path class="st1" d="M114.01,49.61c3.08,0,6.31-1.34,8.49-3.51c2.08-2.08,3.65-5.5,3.51-8.49c-0.29-6.5-5.27-12-12-12
			c-3.08,0-6.31,1.34-8.49,3.51c-2.08,2.08-3.65,5.5-3.51,8.49C102.3,44.12,107.28,49.61,114.01,49.61L114.01,49.61z"/>
	</g>
</g>
</svg>
