<?xml version="1.0" encoding="utf-8"?>
<!-- Generator: Adobe Illustrator 23.0.5, SVG Export Plug-In . SVG Version: 6.00 Build 0)  -->
<svg version="1.1" id="Capa_1" xmlns="http://www.w3.org/2000/svg" xmlns:xlink="http://www.w3.org/1999/xlink" x="0px" y="0px"
	 viewBox="0 0 150 150" style="enable-background:new 0 0 150 150;" xml:space="preserve">
<style type="text/css">
	.st0{fill:none;stroke:#FFFFFF;stroke-width:8;stroke-miterlimit:10;}
	.st1{fill:none;}
	.st2{fill:#FFFFFF;}
</style>
<path class="st0" d="M123.15,136.27H25.43c-6.6,0-12-5.4-12-12V26.54c0-6.6,5.4-12,12-12h97.73c6.6,0,12,5.4,12,12v97.73
	C135.15,130.87,129.75,136.27,123.15,136.27z"/>
<g>
	<path class="st1" d="M37.49,38.24"/>
</g>
<rect x="29.02" y="54.39" class="st2" width="16.85" height="62.39"/>
<rect x="29.02" y="30.58" class="st2" width="16.85" height="14.92"/>
<path class="st2" d="M77.34,63.83c0-3.15,0-6.29,0-9.44H62.72v62.39h15.92c-0.22-16.9-0.15-29.59-0.06-35.24
	c0.02-1.14,0.09-3.85,1.36-6.97c0.67-1.64,1.98-4.82,5.37-7.04c1.14-0.74,4.79-2.86,9.26-1.85c0.92,0.21,3.46,0.82,5.37,2.96
	c2.48,2.79,2.42,6.53,2.41,8.15c-0.05,6.67,0.28,20.74,0.56,39.62l16.66,0.37c-0.73-12.57-0.43-21.94,0-28.33
	c0,0,0.45-6.57-0.37-15.55c-0.64-7.04-1.53-9.6-2.96-11.85c-2.86-4.48-7.08-6.42-8.89-7.22c-8.79-3.9-17.06-0.67-18.39-0.13
	c-4.95,2.02-8.06,5.27-9.63,7.21C78.66,61.89,78,62.86,77.34,63.83z"/>
</svg>
